<svg width="15" height="19" viewBox="0 0 15 19" fill="none" xmlns="http://www.w3.org/2000/svg">
<path d="M7.08394 0C3.17785 0 0 3.1778 0 7.08389C0 8.71445 1.05709 10.9721 3.23168 13.986C4.7672 16.1141 6.27901 17.7967 6.34263 17.8673L7.08394 18.69L7.82525 17.8673C7.88887 17.7967 9.40063 16.1141 10.9362 13.986C13.1108 10.9722 14.1679 8.7145 14.1679 7.08389C14.1678 3.1778 10.99 0 7.08394 0ZM9.32789 12.8041C8.49776 13.9557 7.65981 14.9879 7.08384 15.6725C6.51087 14.9915 5.67815 13.9658 4.85012 12.8182C2.36659 9.37623 1.99578 7.74807 1.99578 7.08394C1.99573 4.27824 4.27829 1.99573 7.08394 1.99573C9.88958 1.99573 12.1721 4.27824 12.1721 7.08389C12.1721 7.74672 11.8026 9.37124 9.32789 12.8041Z" fill="#B48258"/>
<path d="M7.08399 9.56343C8.45337 9.56343 9.56348 8.45333 9.56348 7.08394C9.56348 5.71455 8.45337 4.60445 7.08399 4.60445C5.7146 4.60445 4.60449 5.71455 4.60449 7.08394C4.60449 8.45333 5.7146 9.56343 7.08399 9.56343Z" fill="#B48258"/>
</svg>
